<svg viewBox="0 0 24 24" xmlns="http://www.w3.org/2000/svg">
  <!-- Graph edges -->
  <line x1="4" y1="4" x2="12" y2="4" stroke="#6366f1" stroke-width="0.5" />
  <line x1="12" y1="4" x2="20" y2="4" stroke="#6366f1" stroke-width="0.5" />
  <line x1="4" y1="12" x2="12" y2="12" stroke="#6366f1" stroke-width="0.5" />
  <line x1="12" y1="12" x2="20" y2="12" stroke="#6366f1" stroke-width="0.5" />
  <line x1="4" y1="20" x2="12" y2="20" stroke="#6366f1" stroke-width="0.5" />
  <line x1="12" y1="20" x2="20" y2="20" stroke="#6366f1" stroke-width="0.5" />
  <line x1="4" y1="4" x2="4" y2="12" stroke="#6366f1" stroke-width="0.5" />
  <line x1="4" y1="12" x2="4" y2="20" stroke="#6366f1" stroke-width="0.5" />
  <line x1="12" y1="4" x2="12" y2="12" stroke="#6366f1" stroke-width="0.5" />
  <line x1="12" y1="12" x2="12" y2="20" stroke="#6366f1" stroke-width="0.5" />
  <line x1="20" y1="4" x2="20" y2="12" stroke="#6366f1" stroke-width="0.5" />
  <line x1="20" y1="12" x2="20" y2="20" stroke="#6366f1" stroke-width="0.5" />
  <!-- Graph nodes with animation -->
  <circle cx="4" cy="4" r="1.5" fill="#818cf8" opacity="0.3">
    <animate attributeName="opacity" values="0.3;1;0.3" dur="1.8s" begin="0s" repeatCount="indefinite" />
  </circle>
  <circle cx="12" cy="4" r="1.5" fill="#818cf8" opacity="0.3">
    <animate attributeName="opacity" values="0.3;1;0.3" dur="1.8s" begin="0.2s" repeatCount="indefinite" />
  </circle>
  <circle cx="20" cy="4" r="1.5" fill="#818cf8" opacity="0.3">
    <animate attributeName="opacity" values="0.3;1;0.3" dur="1.8s" begin="0.4s" repeatCount="indefinite" />
  </circle>
  <circle cx="4" cy="12" r="1.5" fill="#a78bfa" opacity="0.3">
    <animate attributeName="opacity" values="0.3;1;0.3" dur="1.8s" begin="0.2s" repeatCount="indefinite" />
  </circle>
  <circle cx="12" cy="12" r="1.5" fill="#a78bfa" opacity="0.3">
    <animate attributeName="opacity" values="0.3;1;0.3" dur="1.8s" begin="0.4s" repeatCount="indefinite" />
  </circle>
  <circle cx="20" cy="12" r="1.5" fill="#a78bfa" opacity="0.3">
    <animate attributeName="opacity" values="0.3;1;0.3" dur="1.8s" begin="0.6s" repeatCount="indefinite" />
  </circle>
  <circle cx="4" cy="20" r="1.5" fill="#c4b5fd" opacity="0.3">
    <animate attributeName="opacity" values="0.3;1;0.3" dur="1.8s" begin="0.4s" repeatCount="indefinite" />
  </circle>
  <circle cx="12" cy="20" r="1.5" fill="#c4b5fd" opacity="0.3">
    <animate attributeName="opacity" values="0.3;1;0.3" dur="1.8s" begin="0.6s" repeatCount="indefinite" />
  </circle>
  <circle cx="20" cy="20" r="1.5" fill="#c4b5fd" opacity="0.3">
    <animate attributeName="opacity" values="0.3;1;0.3" dur="1.8s" begin="0.8s" repeatCount="indefinite" />
  </circle>
</svg>
